PathFileType  4	(X/Y/Z) C:\Users\antoi\Documents\MyRepositories\mobilecap\ResultsAnalysis
DataRate	CameraRate	NumFrames	NumMarkers	Units	OrigDataRate	OrigDataStartFrame	OrigNumFrames
100.0	100.0	4	51	mm	100.0	1	147
Frame#	Time	r_knee			r_shank_antsup			r_ankle			r_calc			r_5meta			r_toe			L_knee			L_shank_antsup			L_ankle			L_calc			L_5meta			L_toe			r_sh2			r_sh3			r_sh4			L_sh2			L_sh3			r_thigh1			r_thigh2			r_thigh3			r_thigh4			r_thigh5			L_thigh1			L_thigh2			L_thigh3			L_thigh4			r.ASIS			r.PSIS			L.ASIS			L.PSIS			C7			R_Shoulder			L_Shoulder			R_Sternum			L_Sternum			R_humerus			R_elbow_med			R_elbow_lat			R_forearm			R_wrist_radius			R_wrist_ulna			L_humerus			L_elbow_med			L_elbow_lat			L_forearm			L_wrist_radius			L_wrist_ulna			R_HJC			L_HJC			R_HJC_reg			L_HJC_reg			
		X1	Y1	Z1	X2	Y2	Z2	X3	Y3	Z3	X4	Y4	Z4	X5	Y5	Z5	X6	Y6	Z6	X7	Y7	Z7	X8	Y8	Z8	X9	Y9	Z9	X10	Y10	Z10	X11	Y11	Z11	X12	Y12	Z12	X13	Y13	Z13	X14	Y14	Z14	X15	Y15	Z15	X16	Y16	Z16	X17	Y17	Z17	X18	Y18	Z18	X19	Y19	Z19	X20	Y20	Z20	X21	Y21	Z21	X22	Y22	Z22	X23	Y23	Z23	X24	Y24	Z24	X25	Y25	Z25	X26	Y26	Z26	X27	Y27	Z27	X28	Y28	Z28	X29	Y29	Z29	X30	Y30	Z30	X31	Y31	Z31	X32	Y32	Z32	X33	Y33	Z33	X34	Y34	Z34	X35	Y35	Z35	X36	Y36	Z36	X37	Y37	Z37	X38	Y38	Z38	X39	Y39	Z39	X40	Y40	Z40	X41	Y41	Z41	X42	Y42	Z42	X43	Y43	Z43	X44	Y44	Z44	X45	Y45	Z45	X46	Y46	Z46	X47	Y47	Z47	X48	Y48	Z48	X49	Y49	Z49	X50	Y50	Z50	X51	Y51	Z51	

1	0.00000000	-50.06252	451.51543	-107.77405	-17.90500	386.95954	-84.12819	62.66939	93.54865	-123.93185	11.24692	49.64247	-167.89158	173.52753	76.03299	-94.15959	209.27630	113.61983	-145.30778	-390.54263	460.08106	-396.88373	-401.29472	389.99760	-400.09514	-613.83076	157.27623	-379.89330	-694.58245	170.13183	-339.41630	-575.87374	51.81531	-390.79637	-525.35279	49.97699	-333.20302	17.15832	280.50406	-83.52875	-89.27464	362.85975	-94.75104	-59.96116	251.14316	-98.34576	-469.89324	448.86091	-414.21617	-538.78209	347.88209	-417.70958	-106.76045	755.90460	-117.81685	-56.99245	654.42386	-109.27779	-89.67516	619.82144	-61.37230	-189.52151	726.01630	-47.84752	-148.94958	616.92437	-56.03524	-221.14072	702.53537	-421.09961	-266.77152	571.08345	-417.66954	-328.98277	739.96698	-423.10931	-369.71860	605.03272	-406.93026	-136.24082	877.73803	-126.68025	-325.82480	890.15387	-178.92898	-161.01680	868.00884	-385.82726	-337.23545	892.24305	-283.47852	-238.97882	1355.77779	-277.58412	-186.12604	1312.94398	-119.08130	-192.42201	1274.18650	-435.64621	-133.47406	1261.14833	-252.93946	-135.70158	1255.98793	-296.93585	-198.15324	1101.28058	12.33852	-247.95928	989.45464	-9.41260	-227.85733	1025.92721	52.08640	-154.90295	928.78095	83.03855	-108.11245	820.52686	104.11686	-149.05685	807.62035	120.65991	-159.51546	1140.95269	-469.68337	-219.50466	928.42443	-426.69648	-198.58765	933.94232	-484.19099	-121.12515	853.15666	-478.14490	-68.45730	740.75128	-446.10223	-98.08671	721.29242	-461.22195	-203.28015	800.60989	-145.53701	-222.58066	798.55275	-344.88666	-198.00668	785.40662	-158.77169	-216.65750	788.82147	-329.65957	
2	0.01000000	-33.78679	451.94498	-107.52697	-1.79066	386.88559	-84.53198	68.75966	92.01353	-124.57307	13.96201	51.47501	-168.08374	177.49289	69.35135	-94.91374	215.43358	104.44198	-146.29477	-375.27911	457.59840	-396.37408	-388.30780	387.75911	-399.92931	-606.49070	160.77442	-379.98850	-686.34562	177.68717	-339.63079	-573.41952	53.67560	-390.80021	-523.27003	49.80292	-333.09815	30.85497	279.61326	-84.25099	-73.68392	364.25864	-94.10831	-47.02340	251.97723	-97.91810	-454.96687	448.32708	-414.01991	-526.56403	349.29049	-417.46105	-91.53528	756.55993	-115.04947	-41.80079	655.04793	-107.68486	-74.75864	620.01949	-60.39876	-174.75400	725.82524	-45.92154	-134.02124	616.79481	-55.42273	-205.64484	699.60494	-418.76318	-251.71955	568.52275	-416.62560	-314.14494	737.39261	-421.10188	-354.69127	602.28024	-405.70306	-121.59168	876.30825	-124.69202	-311.23421	888.98869	-177.41207	-145.84373	864.86257	-384.26232	-322.45201	889.67046	-282.14591	-225.59572	1354.60456	-271.91787	-172.26173	1309.24025	-113.69593	-177.48433	1274.85901	-430.91072	-119.66369	1259.90564	-247.99322	-121.55299	1255.40445	-292.04354	-182.26938	1096.06292	15.22319	-231.31460	983.84937	-7.18625	-211.45876	1020.01123	54.42370	-137.78996	923.08773	84.64510	-90.32116	814.96034	104.82189	-131.01613	801.71888	121.14774	-144.43304	1141.42377	-465.87761	-207.83137	929.27319	-424.91240	-187.05216	935.15949	-482.50966	-111.05442	852.95378	-477.60367	-60.51192	739.40441	-447.13166	-90.42755	720.58436	-462.35848	-188.74048	799.24108	-143.25893	-207.69127	795.69434	-342.61786	-183.77894	784.64485	-155.76352	-202.11467	785.75671	-326.97311	
3	0.02000000	-17.58665	452.65913	-107.17194	14.02114	386.99766	-84.74817	74.32260	90.68023	-125.15637	16.39680	53.16648	-168.22958	181.08418	63.24131	-95.55955	221.03185	95.92888	-147.18345	-359.54914	455.03476	-395.89784	-374.83686	385.50621	-399.78276	-598.66539	164.43031	-380.06478	-677.37099	185.55309	-339.76689	-570.79484	55.75252	-390.76632	-521.02060	49.68841	-333.03574	44.09854	278.91131	-84.76357	-58.39003	365.97584	-93.40310	-34.53788	253.13233	-97.41945	-439.55150	447.77246	-413.82796	-513.85748	350.73681	-417.18647	-76.55110	757.47085	-112.28171	-26.74017	655.98622	-106.03692	-59.88956	620.52369	-59.33818	-160.11745	725.88136	-43.93601	-119.17569	616.93949	-54.67169	-190.18981	696.94770	-416.50436	-236.32223	566.03385	-415.53203	-299.20477	734.79118	-419.02631	-339.36215	599.45199	-404.45334	-107.08758	875.22573	-122.64024	-296.80307	888.11655	-176.04782	-130.63020	861.88662	-382.56522	-307.75275	887.25089	-280.99103	-212.24639	1353.63360	-266.33423	-158.42464	1305.69721	-108.39469	-162.51222	1275.64972	-426.19358	-105.93417	1258.83520	-243.03703	-107.41430	1254.97167	-287.13486	-166.22195	1091.02000	17.93141	-214.51512	978.39798	-5.14669	-194.83960	1014.22216	56.55366	-120.58776	917.49203	86.09163	-72.55019	809.46458	105.40714	-113.02667	795.91505	121.51199	-129.35529	1142.01217	-461.96704	-196.10653	930.26178	-423.09561	-175.43622	936.52141	-480.78501	-100.99009	852.86379	-477.08072	-52.65702	738.17126	-448.22021	-82.87483	720.01151	-463.53428	-174.37045	798.20564	-140.92354	-192.77139	793.00861	-340.29097	-169.69999	784.30580	-152.62225	-187.59069	782.89359	-324.10294	
4	0.03000000	-1.60262	453.82799	-106.60732	29.22479	387.40496	-84.61915	78.95832	89.68981	-125.62648	18.34891	54.61068	-168.29591	184.02826	58.12799	-96.01111	225.65348	88.59462	-147.89104	-342.96650	452.32830	-395.48708	-360.47221	383.22406	-399.67546	-589.94889	168.38465	-380.09911	-667.01576	193.97477	-339.74658	-567.84752	58.25803	-390.66177	-518.47621	49.70678	-333.05451	56.47397	278.51639	-84.90034	-43.68651	368.21066	-92.57123	-22.90882	254.81952	-96.79466	-423.22941	447.17555	-413.64423	-500.24642	352.25101	-416.86774	-61.98283	758.81301	-109.51871	-11.90939	657.45394	-104.28894	-45.13033	621.54656	-58.11358	-145.71552	726.37247	-41.84982	-104.49173	617.55683	-53.67407	-174.75877	694.75788	-414.34707	-220.29262	563.68499	-414.35301	-284.08726	732.14480	-416.83475	-323.48239	596.48811	-403.17287	-92.85881	874.77487	-120.47614	-282.65948	887.75694	-174.94969	-115.38466	859.23604	-380.63166	-293.21282	885.14652	-280.14519	-198.96776	1353.03109	-260.90745	-144.66206	1302.47289	-103.26160	-147.49813	1276.67202	-421.51474	-92.35562	1258.08605	-238.07753	-93.31190	1254.82128	-282.20838	-149.88641	1086.32309	20.30684	-197.43398	973.26155	-3.46776	-177.82165	1008.70159	58.29457	-103.22408	912.10672	87.23127	-54.82080	804.12851	105.76610	-95.13907	790.32125	121.64278	-114.30600	1142.84037	-457.90083	-184.27893	931.52803	-421.21877	-163.66069	938.16569	-478.97946	-90.92552	853.00240	-476.57844	-44.97461	737.16774	-449.40551	-75.51976	719.70836	-464.77589	-160.31690	797.77092	-138.49313	-177.82378	790.65693	-337.86567	-155.88307	784.67065	-149.28300	-173.10750	780.42573	-320.94608	
